<svg id="Layer_1" data-name="Layer 1" xmlns="http://www.w3.org/2000/svg" viewBox="0 0 101 101"><path d="M90.5,76H77V18.5a1.5,1.5,0,0,0-3,0V68H69V63.21A10.22,10.22,0,0,0,58.79,53h-.31L41.68,24.44a15.15,15.15,0,0,0-13-7.44H16.5A1.5,1.5,0,0,0,15,18.5V53H10.5A1.5,1.5,0,0,0,9,54.5v23A1.5,1.5,0,0,0,10.5,79h5.73a9,9,0,0,0,17.54,0H44.23a9,9,0,0,0,17.54,0H67.5A1.5,1.5,0,0,0,69,77.5V71h5v6.5A1.5,1.5,0,0,0,75.5,79h15a1.5,1.5,0,0,0,0-3ZM18,20H28.67A12.17,12.17,0,0,1,39.1,26L55,53H18Zm7,63a6,6,0,1,1,6-6A6,6,0,0,1,25,83Zm28,0a6,6,0,1,1,6-6A6,6,0,0,1,53,83Zm13-7H61.94a9,9,0,0,0-17.88,0H33.94a9,9,0,0,0-17.88,0H12V56H58.79A7.23,7.23,0,0,1,66,63.21Z"/></svg>